<svg width="23" height="22" viewBox="0 0 23 22" fill="none" xmlns="http://www.w3.org/2000/svg">
<path d="M11 20.75C5.35 20.75 0.75 16.15 0.75 10.5C0.75 4.85 5.35 0.25 11 0.25C16.65 0.25 21.25 4.85 21.25 10.5C21.25 16.15 16.65 20.75 11 20.75ZM11 1.75C6.17 1.75 2.25 5.68 2.25 10.5C2.25 15.32 6.17 19.25 11 19.25C15.83 19.25 19.75 15.32 19.75 10.5C19.75 5.68 15.83 1.75 11 1.75ZM21.5 21.751C21.31 21.751 21.12 21.681 20.97 21.531L18.97 19.531C18.8305 19.3899 18.7523 19.1994 18.7523 19.001C18.7523 18.8026 18.8305 18.6121 18.97 18.471C19.26 18.181 19.74 18.181 20.03 18.471L22.03 20.471C22.32 20.761 22.32 21.241 22.03 21.531C21.88 21.681 21.69 21.751 21.5 21.751Z" fill="#777777"/>
</svg>
