<?xml version="1.0" encoding="UTF-8"?>
<svg xmlns="http://www.w3.org/2000/svg" xmlns:xlink="http://www.w3.org/1999/xlink" width="25px" height="25px" viewBox="0 0 25 25" version="1.1">
<g id="surface1">
<path style=" stroke:none;fill-rule:nonzero;fill:rgb(46.666667%,46.666667%,46.666667%);fill-opacity:1;" d="M 12.5 23.863281 C 6.230469 23.863281 1.136719 18.769531 1.136719 12.5 C 1.136719 6.230469 6.230469 1.136719 12.5 1.136719 C 18.769531 1.136719 23.863281 6.230469 23.863281 12.5 C 23.863281 18.769531 18.769531 23.863281 12.5 23.863281 Z M 12.5 2.722656 C 7.109375 2.722656 2.722656 7.109375 2.722656 12.5 C 2.722656 17.890625 7.109375 22.277344 12.5 22.277344 C 17.890625 22.277344 22.277344 17.890625 22.277344 12.5 C 22.277344 7.109375 17.890625 2.722656 12.5 2.722656 Z M 12.5 2.722656 "/>
<path style=" stroke:none;fill-rule:nonzero;fill:rgb(46.666667%,46.666667%,46.666667%);fill-opacity:1;" d="M 12.550781 12.613281 C 12.546875 12.613281 12.542969 12.613281 12.542969 12.613281 L 12.464844 12.566406 C 12.445312 12.554688 12.429688 12.527344 12.429688 12.507812 L 12.429688 12.402344 C 12.429688 12.394531 12.4375 12.386719 12.449219 12.386719 C 12.460938 12.386719 12.46875 12.394531 12.46875 12.402344 L 12.46875 12.507812 C 12.46875 12.515625 12.476562 12.527344 12.484375 12.535156 L 12.5625 12.578125 C 12.570312 12.585938 12.574219 12.597656 12.566406 12.605469 C 12.566406 12.609375 12.5625 12.609375 12.558594 12.613281 C 12.558594 12.613281 12.554688 12.613281 12.550781 12.613281 Z M 12.550781 12.613281 "/>
<path style=" stroke:none;fill-rule:nonzero;fill:rgb(46.666667%,46.666667%,46.666667%);fill-opacity:1;" d="M 12.550781 12.613281 C 12.546875 12.613281 12.542969 12.613281 12.542969 12.613281 L 12.464844 12.566406 C 12.445312 12.554688 12.429688 12.527344 12.429688 12.507812 L 12.429688 12.402344 C 12.429688 12.394531 12.4375 12.386719 12.449219 12.386719 C 12.460938 12.386719 12.46875 12.394531 12.46875 12.402344 L 12.46875 12.507812 C 12.46875 12.515625 12.476562 12.527344 12.484375 12.535156 L 12.5625 12.578125 C 12.570312 12.585938 12.574219 12.597656 12.566406 12.605469 C 12.566406 12.609375 12.5625 12.609375 12.558594 12.613281 C 12.558594 12.613281 12.554688 12.613281 12.550781 12.613281 Z M 12.550781 12.613281 "/>
<path style=" stroke:none;fill-rule:nonzero;fill:rgb(46.666667%,46.666667%,46.666667%);fill-opacity:1;" d="M 16.707031 17.144531 C 16.546875 17.144531 16.390625 17.101562 16.257812 17.015625 L 12.597656 14.898438 C 11.6875 14.371094 11.011719 13.210938 11.011719 12.191406 L 11.011719 7.492188 C 11.011719 7.019531 11.414062 6.632812 11.898438 6.632812 C 12.382812 6.632812 12.785156 7.019531 12.785156 7.492188 L 12.785156 12.191406 C 12.785156 12.605469 13.140625 13.210938 13.503906 13.417969 L 17.167969 15.539062 C 17.59375 15.78125 17.722656 16.308594 17.476562 16.71875 C 17.394531 16.847656 17.28125 16.953125 17.148438 17.027344 C 17.015625 17.101562 16.863281 17.140625 16.707031 17.144531 Z M 16.707031 17.144531 "/>
</g>
</svg>
