<svg width="43" height="55" viewBox="0 0 43 55" fill="none" xmlns="http://www.w3.org/2000/svg">
<path d="M4.90457 54.7246H12.6667C15.9145 54.7246 17.5708 53.0683 17.5708 49.853V4.87163C17.5708 1.5914 15.9145 0.0324775 12.6667 0H4.90457C1.65682 0 0.000468483 1.65635 0.000468483 4.87163V49.853C-0.032009 53.0683 1.62434 54.7246 4.90457 54.7246ZM30.2046 54.7246H37.9667C41.2144 54.7246 42.8708 53.0683 42.8708 49.853V4.87163C42.8708 1.5914 41.2144 0 37.9667 0H30.2046C26.9893 0 25.3329 1.65635 25.3329 4.87163V49.853C25.3329 53.0683 26.9243 54.7246 30.2046 54.7246Z" fill="#313131"/>
</svg>
